<svg version="1.2" baseProfile="tiny-ps" xmlns="http://www.w3.org/2000/svg" viewBox="0 0 16 17">
	<title>cbimage-svg</title>
	<style>
		tspan { white-space:pre }
		.s0 { fill: #bebebe } 
	</style>
	<path id="Layer" fill-rule="evenodd" class="s0" d="m15.39 15.94c-0.12 0.05-0.25 0.07-0.38 0.07c-0.13 0-0.26-0.03-0.38-0.07c-0.12-0.05-0.23-0.12-0.32-0.21l-2.29-2.29c-1.26 0.97-2.82 1.56-4.54 1.56c-3.03 0-5.77-1.83-6.93-4.63c-1.16-2.8-0.52-6.03 1.63-8.17c2.14-2.14 5.37-2.79 8.17-1.63c2.8 1.16 4.63 3.9 4.63 6.93c0 1.72-0.6 3.28-1.58 4.55l2.29 2.29c0.09 0.09 0.16 0.2 0.21 0.32c0.05 0.12 0.07 0.25 0.07 0.38c0 0.13-0.03 0.26-0.07 0.38c-0.05 0.12-0.12 0.23-0.21 0.32c-0.09 0.09-0.2 0.16-0.32 0.21zm-11.78-12.33c-1.03 1.03-1.61 2.43-1.61 3.89c0 1.46 0.58 2.86 1.61 3.89c1.03 1.03 2.43 1.61 3.89 1.61c1.46 0 2.86-0.58 3.89-1.61c1.03-1.03 1.61-2.43 1.61-3.89c0-1.46-0.58-2.86-1.61-3.89c-1.03-1.03-2.43-1.61-3.89-1.61c-1.46 0-2.86 0.58-3.89 1.61z" />
</svg>
